<?xml version="1.0"?>
<svg version="1.1" xmlns="http://www.w3.org/2000/svg" xmlns:xlink="http://www.w3.org/1999/xlink" width="512" height="512">
    <desc iVinci="yes" version="4.6" gridStep="20" showGrid="no" snapToGrid="no" codePlatform="0"/>
    <g id="Layer1" name="Layer 1" opacity="1">
        <g id="Shape1">
            <desc shapeID="1" type="0" basicInfo-basicType="0" basicInfo-roundedRectRadius="12" basicInfo-polygonSides="6" basicInfo-starPoints="5" bounding="rect(-65.2841,-12.5519,130.568,25.1038)" text="" font-familyName="" font-pixelSize="20" font-bold="0" font-underline="0" font-alignment="1" strokeStyle="0" markerStart="0" markerEnd="0" shadowEnabled="0" shadowOffsetX="0" shadowOffsetY="2" shadowBlur="4" shadowOpacity="160" blurEnabled="0" blurRadius="4" transform="matrix(1.92472,0,0,1.92472,255.288,40.3538)" pers-center="0,0" pers-size="0,0" pers-start="0,0" pers-end="0,0" locked="0" mesh="" flag=""/>
            <path id="shapePath1" d="M364.001,19.4742 C358.997,21.7839 351.875,26.4032 348.411,29.4827 L341.867,35.2569 L323.774,31.4075 C309.724,28.3279 298.753,27.3655 273.154,27.3655 C255.254,27.558 236.97,27.943 232.735,28.7129 C174.801,38.144 153.822,43.7257 137.077,54.3116 C130.148,58.546 127.261,64.5126 131.88,64.5126 C133.035,64.5126 142.081,61.4331 151.704,57.9686 C180.575,47.1902 220.802,41.0311 266.418,40.8386 C296.828,40.4536 307.414,41.2235 321.657,44.1106 L339.557,47.96 L352.645,38.9139 C359.959,33.9096 366.503,29.8677 367.081,29.8677 C367.85,29.8677 368.428,32.9472 368.428,36.7967 C368.428,45.4579 371.315,51.0396 375.934,51.0396 C380.939,51.0396 381.516,48.1525 380.554,32.5623 C379.206,15.2398 376.704,13.1226 364.001,19.4742 Z" style="stroke:none;fill-rule:nonzero;fill:#000000;fill-opacity:1;"/>
        </g>
        <g id="Shape2">
            <desc shapeID="2" type="0" basicInfo-basicType="0" basicInfo-roundedRectRadius="12" basicInfo-polygonSides="6" basicInfo-starPoints="5" bounding="rect(-11.6635,-14.8683,23.327,29.7365)" text="" font-familyName="" font-pixelSize="20" font-bold="0" font-underline="0" font-alignment="1" strokeStyle="0" markerStart="0" markerEnd="0" shadowEnabled="0" shadowOffsetX="0" shadowOffsetY="2" shadowBlur="4" shadowOpacity="160" blurEnabled="0" blurRadius="4" transform="matrix(1.92472,0,0,1.92472,103.288,66.5524)" pers-center="0,0" pers-size="0,0" pers-start="0,0" pers-end="0,0" locked="0" mesh="" flag=""/>
            <path id="shapePath2" d="M81.8372,42.1859 C79.72,47.5751 81.2597,83.9523 83.7619,90.8813 C85.6866,95.8856 90.3059,96.6554 92.6156,92.4211 C93.578,90.8813 93.578,80.8727 92.6156,70.0943 C91.6532,59.5084 91.4608,50.2697 92.0382,49.6923 C92.6156,49.1149 95.5027,50.4622 98.5822,52.7718 C113.21,63.1653 128.415,66.2449 125.336,58.161 C123.989,54.5041 98.5822,40.8386 88.9586,38.3364 C84.5318,37.3741 83.3769,37.9515 81.8372,42.1859 Z" style="stroke:none;fill-rule:nonzero;fill:#000000;fill-opacity:1;"/>
        </g>
        <g id="Shape3">
            <desc shapeID="3" type="0" basicInfo-basicType="0" basicInfo-roundedRectRadius="12" basicInfo-polygonSides="6" basicInfo-starPoints="5" bounding="rect(-106.664,-115.04,213.328,230.081)" text="" font-familyName="" font-pixelSize="20" font-bold="0" font-underline="0" font-alignment="1" strokeStyle="0" markerStart="0" markerEnd="0" shadowEnabled="0" shadowOffsetX="0" shadowOffsetY="2" shadowBlur="4" shadowOpacity="160" blurEnabled="0" blurRadius="4" transform="matrix(1.92472,0,0,1.92472,249.764,274.385)" pers-center="0,0" pers-size="0,0" pers-start="0,0" pers-end="0,0" locked="0" mesh="" flag=""/>
            <path id="shapePath3" d="M386.135,55.2739 C381.708,59.7008 383.826,63.7427 397.491,77.0233 C413.274,92.806 425.977,116.095 435.985,147.66 C443.877,172.489 443.877,188.272 436.755,212.139 C424.63,251.595 396.336,275.269 344.369,289.512 C312.034,298.366 293.364,300.291 249.095,299.906 C211.756,299.521 207.714,299.136 177.881,292.784 C119.369,280.081 101.469,272.382 77.9877,249.286 C57.9707,229.654 55.4685,222.34 57.2007,189.619 C59.3179,151.317 64.8996,130.53 77.7952,111.476 C87.9962,96.4629 83.5694,94.1533 70.8662,108.011 C54.6986,125.334 45.075,160.556 44.4976,204.247 C44.3051,221.57 44.8825,224.649 49.5018,234.273 C55.0836,245.629 58.7405,249.863 77.4103,266.801 L89.3436,277.579 L85.1091,288.935 C79.9124,303.178 77.9877,344.944 81.6447,363.422 C84.3393,377.472 92.6156,394.794 102.239,406.535 C109.361,415.196 132.072,430.209 138.039,430.209 C139.964,430.209 142.466,432.904 144.006,436.753 C149.395,449.649 163.253,453.498 172.876,444.645 C178.843,439.255 178.843,439.255 174.801,448.494 C173.069,452.536 170.182,462.544 168.065,470.436 L164.215,485.064 L168.45,488.336 C171.144,490.645 175.763,491.8 181.73,491.8 C186.734,491.8 195.396,492.57 200.785,493.725 C214.065,496.227 329.356,496.612 335.708,494.11 C338.402,493.148 346.101,491.608 353.03,490.838 C359.959,490.068 367.658,488.528 370.353,487.566 C372.855,486.604 379.399,485.256 384.788,484.871 C390.177,484.294 395.951,482.369 397.876,480.444 C401.148,477.365 401.148,476.595 396.721,463.699 C390.947,446.762 377.859,423.665 373.625,422.895 C367.273,421.548 368.043,428.477 376.897,445.992 C381.708,455.808 385.943,466.009 386.135,468.704 C386.713,473.9 388.637,473.13 359.767,478.135 C353.415,479.29 343.214,481.214 337.055,482.177 C330.318,483.524 296.058,484.101 249.865,483.909 L173.646,483.716 L174.801,476.595 C175.379,472.746 179.613,458.31 184.04,444.26 L192.316,419.046 L205.789,420.008 C213.103,420.586 236.97,420.008 258.719,418.853 C293.556,416.736 302.602,415.774 319.925,411.924 C322.235,411.347 324.159,409.807 324.159,408.267 C324.159,402.301 319.732,401.723 299.138,404.226 C287.975,405.573 268.15,407.305 254.869,408.075 C241.589,408.845 221.764,410 210.601,410.77 C190.776,412.117 190.199,412.117 185.195,407.305 C182.115,404.803 179.805,401.338 179.805,399.799 C179.805,398.259 175.763,390.753 170.952,382.861 C162.29,369.003 149.01,338.208 149.01,332.049 C149.01,327.814 144.006,321.078 142.081,323.002 C139.579,325.312 141.311,340.902 145.353,353.798 C147.47,360.342 153.052,373.238 157.671,382.476 L166.332,399.414 L160.751,402.108 C157.864,403.648 152.667,408.075 149.395,411.924 L143.236,418.661 L131.88,413.079 C114.172,404.033 98.7747,382.861 93.0005,358.995 C89.536,344.944 89.536,305.295 93.0005,291.245 L95.6951,280.466 L106.474,285.663 C119.562,292.207 142.851,298.943 179.805,307.027 C206.174,312.609 210.023,312.994 251.02,313.186 C283.548,313.379 298.945,312.609 312.611,310.299 C329.548,307.22 336.862,305.487 366.503,296.441 C381.323,292.014 404.035,279.504 416.161,269.11 C433.098,254.482 443.684,237.352 450.421,212.716 C455.81,193.661 456.58,169.217 452.346,156.514 C450.806,151.895 448.111,143.041 446.379,136.882 C444.647,130.53 438.488,116.288 432.906,105.124 C424.822,88.9565 419.625,81.4501 407.5,68.747 C399.223,60.0857 391.524,52.9643 390.37,52.9643 C389.407,52.9643 387.483,53.9267 386.135,55.2739 M178.266,410.385 C182.885,414.619 182.692,416.544 176.918,418.661 C171.529,420.778 170.567,424.05 174.994,425.59 C180.19,427.707 178.266,432.134 172.299,432.134 C167.872,432.134 166.525,433.096 165.947,436.368 C165.177,442.143 158.441,443.105 154.207,438.293 C151.512,435.406 151.127,432.711 152.089,426.552 C153.437,418.468 158.248,413.272 168.45,409.23 C174.609,406.728 174.224,406.728 178.266,410.385 Z" style="stroke:none;fill-rule:nonzero;fill:#000000;fill-opacity:1;"/>
        </g>
        <g id="Shape4">
            <desc shapeID="4" type="0" basicInfo-basicType="0" basicInfo-roundedRectRadius="12" basicInfo-polygonSides="6" basicInfo-starPoints="5" bounding="rect(-1.97636,-4.19853,3.95272,8.39706)" text="" font-familyName="" font-pixelSize="20" font-bold="0" font-underline="0" font-alignment="1" strokeStyle="0" markerStart="0" markerEnd="0" shadowEnabled="0" shadowOffsetX="0" shadowOffsetY="2" shadowBlur="4" shadowOpacity="160" blurEnabled="0" blurRadius="4" transform="matrix(1.92472,0,0,1.92472,272.746,69.441)" pers-center="0,0" pers-size="0,0" pers-start="0,0" pers-end="0,0" locked="0" mesh="" flag=""/>
            <path id="shapePath4" d="M269.305,65.09 C267.765,70.6717 271.422,78.5631 274.694,77.4082 C277.774,76.2534 276.811,66.4373 273.347,62.9729 C270.845,60.4707 270.267,60.6632 269.305,65.09 Z" style="stroke:none;fill-rule:nonzero;fill:#000000;fill-opacity:1;"/>
        </g>
        <g id="Shape5">
            <desc shapeID="5" type="0" basicInfo-basicType="0" basicInfo-roundedRectRadius="12" basicInfo-polygonSides="6" basicInfo-starPoints="5" bounding="rect(-2.47485,-4.48179,4.94972,8.96357)" text="" font-familyName="" font-pixelSize="20" font-bold="0" font-underline="0" font-alignment="1" strokeStyle="0" markerStart="0" markerEnd="0" shadowEnabled="0" shadowOffsetX="0" shadowOffsetY="2" shadowBlur="4" shadowOpacity="160" blurEnabled="0" blurRadius="4" transform="matrix(1.92472,0,0,1.92472,236.536,73.2089)" pers-center="0,0" pers-size="0,0" pers-start="0,0" pers-end="0,0" locked="0" mesh="" flag=""/>
            <path id="shapePath5" d="M231.773,70.0943 C231.773,78.1781 233.697,81.8351 237.739,81.8351 C241.974,81.8351 242.359,79.1405 239.279,70.4793 C236.585,62.7804 231.773,62.5879 231.773,70.0943 Z" style="stroke:none;fill-rule:nonzero;fill:#000000;fill-opacity:1;"/>
        </g>
        <g id="Shape6">
            <desc shapeID="6" type="0" basicInfo-basicType="0" basicInfo-roundedRectRadius="12" basicInfo-polygonSides="6" basicInfo-starPoints="5" bounding="rect(-2.0456,-3.35749,4.09123,6.71498)" text="" font-familyName="" font-pixelSize="20" font-bold="0" font-underline="0" font-alignment="1" strokeStyle="0" markerStart="0" markerEnd="0" shadowEnabled="0" shadowOffsetX="0" shadowOffsetY="2" shadowBlur="4" shadowOpacity="160" blurEnabled="0" blurRadius="4" transform="matrix(1.92472,0,0,1.92472,253.573,73.1182)" pers-center="0,0" pers-size="0,0" pers-start="0,0" pers-end="0,0" locked="0" mesh="" flag=""/>
            <path id="shapePath6" d="M250.25,71.6341 C251.79,78.1781 253.907,80.6803 256.409,79.1405 C259.296,77.4082 256.024,67.3997 252.175,66.8223 C249.48,66.2449 249.095,67.0148 250.25,71.6341 Z" style="stroke:none;fill-rule:nonzero;fill:#000000;fill-opacity:1;"/>
        </g>
        <g id="Shape7">
            <desc shapeID="7" type="0" basicInfo-basicType="0" basicInfo-roundedRectRadius="12" basicInfo-polygonSides="6" basicInfo-starPoints="5" bounding="rect(-5.34232,-3.76433,10.6846,7.52865)" text="" font-familyName="" font-pixelSize="20" font-bold="0" font-underline="0" font-alignment="1" strokeStyle="0" markerStart="0" markerEnd="0" shadowEnabled="0" shadowOffsetX="0" shadowOffsetY="2" shadowBlur="4" shadowOpacity="160" blurEnabled="0" blurRadius="4" transform="matrix(1.92472,0,0,1.92472,413.498,156.606)" pers-center="0,0" pers-size="0,0" pers-start="0,0" pers-end="0,0" locked="0" mesh="" flag=""/>
            <path id="shapePath7" d="M410.387,153.435 C402.688,157.862 401.148,161.518 405.96,163.443 C412.889,165.945 426.554,156.322 423.282,151.125 C421.55,148.238 418.278,148.815 410.387,153.435 Z" style="stroke:none;fill-rule:nonzero;fill:#000000;fill-opacity:1;"/>
        </g>
        <g id="Shape8">
            <desc shapeID="8" type="0" basicInfo-basicType="0" basicInfo-roundedRectRadius="12" basicInfo-polygonSides="6" basicInfo-starPoints="5" bounding="rect(-5.87701,-2.81072,11.754,5.62143)" text="" font-familyName="" font-pixelSize="20" font-bold="0" font-underline="0" font-alignment="1" strokeStyle="0" markerStart="0" markerEnd="0" shadowEnabled="0" shadowOffsetX="0" shadowOffsetY="2" shadowBlur="4" shadowOpacity="160" blurEnabled="0" blurRadius="4" transform="matrix(1.92472,0,0,1.92472,291.072,164.329)" pers-center="0,0" pers-size="0,0" pers-start="0,0" pers-end="0,0" locked="0" mesh="" flag=""/>
            <path id="shapePath8" d="M286.242,161.711 C274.502,166.715 279.891,172.104 292.979,168.64 C300.1,166.523 304.142,162.673 301.64,159.979 C299.715,158.054 292.786,158.824 286.242,161.711 Z" style="stroke:none;fill-rule:nonzero;fill:#000000;fill-opacity:1;"/>
        </g>
        <g id="Shape9">
            <desc shapeID="9" type="0" basicInfo-basicType="0" basicInfo-roundedRectRadius="12" basicInfo-polygonSides="6" basicInfo-starPoints="5" bounding="rect(-4.80625,-2.51067,9.6125,5.02134)" text="" font-familyName="" font-pixelSize="20" font-bold="0" font-underline="0" font-alignment="1" strokeStyle="0" markerStart="0" markerEnd="0" shadowEnabled="0" shadowOffsetX="0" shadowOffsetY="2" shadowBlur="4" shadowOpacity="160" blurEnabled="0" blurRadius="4" transform="matrix(1.92472,0,0,1.92472,226.092,168.659)" pers-center="0,0" pers-size="0,0" pers-start="0,0" pers-end="0,0" locked="0" mesh="" flag=""/>
            <path id="shapePath9" d="M218.107,164.791 C214.643,166.908 218.685,171.527 225.421,173.259 C231.195,174.607 237.739,169.795 234.467,166.523 C231.965,164.021 221.187,162.866 218.107,164.791 Z" style="stroke:none;fill-rule:nonzero;fill:#000000;fill-opacity:1;"/>
        </g>
        <g id="Shape10">
            <desc shapeID="10" type="0" basicInfo-basicType="0" basicInfo-roundedRectRadius="12" basicInfo-polygonSides="6" basicInfo-starPoints="5" bounding="rect(-11.1514,-21.5336,22.3027,43.0671)" text="" font-familyName="" font-pixelSize="20" font-bold="0" font-underline="0" font-alignment="1" strokeStyle="0" markerStart="0" markerEnd="0" shadowEnabled="0" shadowOffsetX="0" shadowOffsetY="2" shadowBlur="4" shadowOpacity="160" blurEnabled="0" blurRadius="4" transform="matrix(1.92472,0,0,1.92472,268.634,206.3)" pers-center="0,0" pers-size="0,0" pers-start="0,0" pers-end="0,0" locked="0" mesh="" flag=""/>
            <path id="shapePath10" d="M256.409,166.908 C249.095,168.832 246.978,172.682 251.79,175.569 C253.137,176.339 255.254,179.033 256.409,181.151 C258.334,184.808 257.949,185.385 252.945,186.54 C249.48,187.117 247.171,188.85 247.171,190.582 C247.171,192.891 249.673,193.469 261.029,193.084 L274.886,192.506 L278.351,205.979 C282.585,221.377 281.815,233.503 276.619,237.352 C272.577,240.432 261.991,239.277 253.715,234.85 C247.363,231.578 246.401,232.156 248.133,237.737 C250.058,243.896 257.372,247.553 267.957,247.746 C285.28,247.746 290.284,241.972 290.092,222.147 C289.899,207.519 283.163,186.732 277.774,183.845 C276.041,182.69 271.807,182.498 268.535,183.075 C264.878,183.845 262.568,183.46 262.568,182.305 C262.568,181.151 261.991,179.033 261.413,177.301 C260.644,175.376 261.221,174.222 263.338,174.222 C266.61,174.222 270.845,167.87 268.92,165.753 C267.38,164.406 265.455,164.406 256.409,166.908 Z" style="stroke:none;fill-rule:nonzero;fill:#000000;fill-opacity:1;"/>
        </g>
        <g id="Shape11">
            <desc shapeID="11" type="0" basicInfo-basicType="0" basicInfo-roundedRectRadius="12" basicInfo-polygonSides="6" basicInfo-starPoints="5" bounding="rect(-6.01916,-3.33499,12.0383,6.66998)" text="" font-familyName="" font-pixelSize="20" font-bold="0" font-underline="0" font-alignment="1" strokeStyle="0" markerStart="0" markerEnd="0" shadowEnabled="0" shadowOffsetX="0" shadowOffsetY="2" shadowBlur="4" shadowOpacity="160" blurEnabled="0" blurRadius="4" transform="matrix(1.92472,0,0,1.92472,416.509,173.177)" pers-center="0,0" pers-size="0,0" pers-start="0,0" pers-end="0,0" locked="0" mesh="" flag=""/>
            <path id="shapePath11" d="M413.274,170.95 C402.303,176.339 402.11,180.958 412.889,179.226 C423.667,177.494 428.094,174.799 428.094,170.372 C428.094,165.368 423.667,165.56 413.274,170.95 Z" style="stroke:none;fill-rule:nonzero;fill:#000000;fill-opacity:1;"/>
        </g>
        <g id="Shape12">
            <desc shapeID="12" type="0" basicInfo-basicType="0" basicInfo-roundedRectRadius="12" basicInfo-polygonSides="6" basicInfo-starPoints="5" bounding="rect(-5.82947,-2.61036,11.659,5.22072)" text="" font-familyName="" font-pixelSize="20" font-bold="0" font-underline="0" font-alignment="1" strokeStyle="0" markerStart="0" markerEnd="0" shadowEnabled="0" shadowOffsetX="0" shadowOffsetY="2" shadowBlur="4" shadowOpacity="160" blurEnabled="0" blurRadius="4" transform="matrix(1.92472,0,0,1.92472,105.168,185.084)" pers-center="0,0" pers-size="0,0" pers-start="0,0" pers-end="0,0" locked="0" mesh="" flag=""/>
            <path id="shapePath12" d="M94.1554,181.921 C92.2306,185 104.164,190.967 110.515,190.004 C117.444,189.042 118.599,182.883 112.055,181.151 C105.319,179.418 95.5027,179.803 94.1554,181.921 Z" style="stroke:none;fill-rule:nonzero;fill:#000000;fill-opacity:1;"/>
        </g>
        <g id="Shape13">
            <desc shapeID="13" type="0" basicInfo-basicType="0" basicInfo-roundedRectRadius="12" basicInfo-polygonSides="6" basicInfo-starPoints="5" bounding="rect(-5.99486,-2.99513,11.9897,5.99025)" text="" font-familyName="" font-pixelSize="20" font-bold="0" font-underline="0" font-alignment="1" strokeStyle="0" markerStart="0" markerEnd="0" shadowEnabled="0" shadowOffsetX="0" shadowOffsetY="2" shadowBlur="4" shadowOpacity="160" blurEnabled="0" blurRadius="4" transform="matrix(1.92472,0,0,1.92472,420.405,191.794)" pers-center="0,0" pers-size="0,0" pers-start="0,0" pers-end="0,0" locked="0" mesh="" flag=""/>
            <path id="shapePath13" d="M417.123,189.812 C404.998,195.394 406.345,198.473 420.395,197.318 C425.977,196.933 431.944,192.122 431.944,188.272 C431.944,184.808 426.747,185.385 417.123,189.812 Z" style="stroke:none;fill-rule:nonzero;fill:#000000;fill-opacity:1;"/>
        </g>
        <g id="Shape14">
            <desc shapeID="14" type="0" basicInfo-basicType="0" basicInfo-roundedRectRadius="12" basicInfo-polygonSides="6" basicInfo-starPoints="5" bounding="rect(-6.4118,-2.60205,12.8236,5.20408)" text="" font-familyName="" font-pixelSize="20" font-bold="0" font-underline="0" font-alignment="1" strokeStyle="0" markerStart="0" markerEnd="0" shadowEnabled="0" shadowOffsetX="0" shadowOffsetY="2" shadowBlur="4" shadowOpacity="160" blurEnabled="0" blurRadius="4" transform="matrix(1.92472,0,0,1.92472,101.962,201.132)" pers-center="0,0" pers-size="0,0" pers-start="0,0" pers-end="0,0" locked="0" mesh="" flag=""/>
            <path id="shapePath14" d="M89.7285,198.858 C90.4984,202.515 105.704,207.519 110.9,205.787 C114.75,204.632 115.52,200.205 112.248,198.281 C111.093,197.511 105.511,196.741 99.737,196.356 C90.6909,195.778 89.1511,196.163 89.7285,198.858 Z" style="stroke:none;fill-rule:nonzero;fill:#000000;fill-opacity:1;"/>
        </g>
        <g id="Shape15">
            <desc shapeID="15" type="0" basicInfo-basicType="0" basicInfo-roundedRectRadius="12" basicInfo-polygonSides="6" basicInfo-starPoints="5" bounding="rect(-6,-2.56578,12,5.13156)" text="" font-familyName="" font-pixelSize="20" font-bold="0" font-underline="0" font-alignment="1" strokeStyle="0" markerStart="0" markerEnd="0" shadowEnabled="0" shadowOffsetX="0" shadowOffsetY="2" shadowBlur="4" shadowOpacity="160" blurEnabled="0" blurRadius="4" transform="matrix(1.92472,0,0,1.92472,102.817,217.932)" pers-center="0,0" pers-size="0,0" pers-start="0,0" pers-end="0,0" locked="0" mesh="" flag=""/>
            <path id="shapePath15" d="M91.2683,215.218 C91.2683,217.335 94.5403,219.26 100.507,220.992 C110.9,224.072 114.365,223.494 114.365,218.298 C114.365,215.603 113.018,214.641 108.783,214.641 C105.704,214.641 100.507,214.063 97.2349,213.486 C92.6156,212.524 91.2683,212.908 91.2683,215.218 Z" style="stroke:none;fill-rule:nonzero;fill:#000000;fill-opacity:1;"/>
        </g>
        <g id="Shape16">
            <desc shapeID="16" type="0" basicInfo-basicType="0" basicInfo-roundedRectRadius="12" basicInfo-polygonSides="6" basicInfo-starPoints="5" bounding="rect(-20.75,-38.926,41.5,77.8519)" text="" font-familyName="" font-pixelSize="20" font-bold="0" font-underline="0" font-alignment="1" strokeStyle="0" markerStart="0" markerEnd="0" shadowEnabled="0" shadowOffsetX="0" shadowOffsetY="2" shadowBlur="4" shadowOpacity="160" blurEnabled="0" blurRadius="4" transform="matrix(1.92472,0,0,1.92472,437.237,328.131)" pers-center="0,0" pers-size="0,0" pers-start="0,0" pers-end="0,0" locked="0" mesh="" flag=""/>
            <path id="shapePath16" d="M433.868,256.022 C433.868,257.562 436.37,261.604 439.258,265.068 C456.388,285.085 462.739,301.446 464.086,328.392 C465.049,346.676 464.664,349.371 460.814,357.262 C455.425,368.233 446.571,377.472 436.755,382.669 C427.709,387.48 427.132,387.48 410.387,389.213 C398.453,390.175 397.299,390.753 397.299,394.602 C397.299,404.611 409.809,405.765 433.868,397.874 C445.802,394.025 450.036,391.33 457.927,383.246 C463.316,377.857 469.668,369.003 472.363,363.806 C476.597,355.338 477.174,351.681 477.174,333.011 C477.174,315.881 476.405,309.337 472.748,298.943 C467.743,284.508 459.275,270.842 448.881,260.449 C441.567,253.135 433.868,250.825 433.868,256.022 Z" style="stroke:none;fill-rule:nonzero;fill:#000000;fill-opacity:1;"/>
        </g>
        <g id="Shape17">
            <desc shapeID="17" type="0" basicInfo-basicType="0" basicInfo-roundedRectRadius="12" basicInfo-polygonSides="6" basicInfo-starPoints="5" bounding="rect(-27.6786,-36.7562,55.3572,73.5123)" text="" font-familyName="" font-pixelSize="20" font-bold="0" font-underline="0" font-alignment="1" strokeStyle="0" markerStart="0" markerEnd="0" shadowEnabled="0" shadowOffsetX="0" shadowOffsetY="2" shadowBlur="4" shadowOpacity="160" blurEnabled="0" blurRadius="4" transform="matrix(1.92472,0,0,1.92472,390.218,371.64)" pers-center="0,0" pers-size="0,0" pers-start="0,0" pers-end="0,0" locked="0" mesh="" flag=""/>
            <path id="shapePath17" d="M367.273,305.872 C362.654,310.492 360.729,314.149 360.729,318.383 C360.729,325.89 363.424,326.082 366.503,318.576 C369.198,311.839 375.934,305.487 373.432,311.839 C372.662,313.956 371.507,317.998 370.93,320.885 C370.353,324.35 368.62,326.274 366.503,326.274 C364.771,326.274 359.767,328.777 355.34,332.049 C346.294,338.593 341.482,350.911 341.482,367.463 C341.482,379.397 344.561,385.748 352.645,390.753 C358.419,394.41 358.612,395.179 357.649,403.263 C355.917,417.121 354.955,418.853 350.528,418.276 C346.486,417.699 346.294,416.736 346.871,402.878 C347.256,394.794 346.679,387.673 345.716,387.096 C341.867,384.786 339.557,391.522 337.825,410.77 C335.9,430.594 337.055,439.063 342.059,442.143 C346.294,444.645 362.461,427.13 362.269,420.393 C362.076,418.853 362.269,412.694 362.269,406.728 L362.654,395.757 L371.892,396.719 C393.257,399.029 407.885,382.476 407.885,356.108 C407.885,348.601 407.307,341.48 406.922,339.94 C406.345,338.208 407.5,336.86 409.809,336.475 C422.897,334.166 443.492,321.848 443.492,316.651 C443.492,310.877 438.68,309.914 432.521,314.341 C414.621,326.852 398.838,331.086 382.478,327.237 L376.319,325.89 L379.399,318.383 C385.558,302.985 378.051,295.094 367.273,305.872 M394.027,341.865 C398.261,349.564 398.069,361.689 393.642,371.89 C387.867,384.401 374.01,389.405 362.846,383.246 C359.189,381.129 358.804,380.552 361.499,379.589 C367.081,377.472 365.156,372.468 358.804,372.468 C355.725,372.468 353.03,371.505 353.03,370.543 C353.03,369.388 355.917,368.618 359.382,368.618 C362.654,368.618 366.888,367.656 368.428,366.694 C373.047,363.614 366.888,360.727 359.382,362.074 C355.34,362.844 353.03,362.459 353.03,361.112 C353.03,359.957 354.955,358.995 357.457,358.995 C359.959,358.995 363.616,357.647 365.733,356.108 C368.813,353.605 369.005,353.028 366.503,351.488 C364.963,350.333 361.691,349.949 359.382,350.718 C353.223,352.066 353.8,348.409 360.537,341.48 C365.541,336.475 367.465,335.898 378.436,335.898 C389.985,335.898 390.755,336.283 394.027,341.865 M349.181,428.092 C349.181,429.054 347.833,430.209 346.294,430.979 C344.561,431.557 343.406,430.979 343.406,429.247 C343.406,427.707 344.754,426.36 346.294,426.36 C347.833,426.36 349.181,427.13 349.181,428.092 Z" style="stroke:none;fill-rule:nonzero;fill:#000000;fill-opacity:1;"/>
        </g>
        <g id="Shape18">
            <desc shapeID="18" type="0" basicInfo-basicType="0" basicInfo-roundedRectRadius="12" basicInfo-polygonSides="6" basicInfo-starPoints="5" bounding="rect(-14.7027,-1.43726,29.4055,2.87454)" text="" font-familyName="" font-pixelSize="20" font-bold="0" font-underline="0" font-alignment="1" strokeStyle="0" markerStart="0" markerEnd="0" shadowEnabled="0" shadowOffsetX="0" shadowOffsetY="2" shadowBlur="4" shadowOpacity="160" blurEnabled="0" blurRadius="4" transform="matrix(1.92472,0,0,1.92472,293.586,429.126)" pers-center="0,0" pers-size="0,0" pers-start="0,0" pers-end="0,0" locked="0" mesh="" flag=""/>
            <path id="shapePath18" d="M265.455,428.092 C263.723,431.172 275.464,432.326 298.945,431.749 C314.343,431.364 321.272,430.402 321.85,428.67 C322.427,426.937 316.075,426.36 294.519,426.36 C279.121,426.36 266.225,427.13 265.455,428.092 Z" style="stroke:none;fill-rule:nonzero;fill:#000000;fill-opacity:1;"/>
        </g>
        <g id="Shape19">
            <desc shapeID="19" type="0" basicInfo-basicType="0" basicInfo-roundedRectRadius="12" basicInfo-polygonSides="6" basicInfo-starPoints="5" bounding="rect(-24.0547,-1.67043,48.1095,3.34086)" text="" font-familyName="" font-pixelSize="20" font-bold="0" font-underline="0" font-alignment="1" strokeStyle="0" markerStart="0" markerEnd="0" shadowEnabled="0" shadowOffsetX="0" shadowOffsetY="2" shadowBlur="4" shadowOpacity="160" blurEnabled="0" blurRadius="4" transform="matrix(1.92472,0,0,1.92472,290.552,443.387)" pers-center="0,0" pers-size="0,0" pers-start="0,0" pers-end="0,0" locked="0" mesh="" flag=""/>
            <path id="shapePath19" d="M284.703,441.18 C263.146,441.565 245.438,442.72 244.476,443.682 C243.129,445.03 247.94,445.799 257.949,445.992 C266.225,446.184 275.849,446.377 278.928,446.569 C294.519,446.954 334.36,443.875 336.285,441.95 C337.825,440.41 336.285,440.025 330.896,440.218 C326.661,440.603 305.874,440.988 284.703,441.18 Z" style="stroke:none;fill-rule:nonzero;fill:#000000;fill-opacity:1;"/>
        </g>
        <g id="Shape20">
            <desc shapeID="20" type="0" basicInfo-basicType="0" basicInfo-roundedRectRadius="12" basicInfo-polygonSides="6" basicInfo-starPoints="5" bounding="rect(-21.3118,-0.830099,42.6236,1.66022)" text="" font-familyName="" font-pixelSize="20" font-bold="0" font-underline="0" font-alignment="1" strokeStyle="0" markerStart="0" markerEnd="0" shadowEnabled="0" shadowOffsetX="0" shadowOffsetY="2" shadowBlur="4" shadowOpacity="160" blurEnabled="0" blurRadius="4" transform="matrix(1.92472,0,0,1.92472,283.14,455.362)" pers-center="0,0" pers-size="0,0" pers-start="0,0" pers-end="0,0" locked="0" mesh="" flag=""/>
            <path id="shapePath20" d="M242.359,455.231 C246.978,457.155 324.159,457.733 324.159,455.616 C324.159,454.846 304.912,454.076 281.238,453.883 C254.677,453.498 240.049,454.076 242.359,455.231 Z" style="stroke:none;fill-rule:nonzero;fill:#000000;fill-opacity:1;"/>
        </g>
        <g id="Shape21">
            <desc shapeID="21" type="0" basicInfo-basicType="0" basicInfo-roundedRectRadius="12" basicInfo-polygonSides="6" basicInfo-starPoints="5" bounding="rect(-23.5455,-1.28961,47.091,2.57925)" text="" font-familyName="" font-pixelSize="20" font-bold="0" font-underline="0" font-alignment="1" strokeStyle="0" markerStart="0" markerEnd="0" shadowEnabled="0" shadowOffsetX="0" shadowOffsetY="2" shadowBlur="4" shadowOpacity="160" blurEnabled="0" blurRadius="4" transform="matrix(1.92472,0,0,1.92472,267.468,466.374)" pers-center="0,0" pers-size="0,0" pers-start="0,0" pers-end="0,0" locked="0" mesh="" flag=""/>
            <path id="shapePath21" d="M222.149,464.469 C222.149,464.662 224.459,465.817 227.346,466.971 C232.35,468.896 310.494,469.666 312.226,467.741 C315.306,464.854 306.452,464.084 266.418,463.892 C241.974,463.892 222.149,464.084 222.149,464.469 Z" style="stroke:none;fill-rule:nonzero;fill:#000000;fill-opacity:1;"/>
        </g>
    </g>
</svg>
