<?xml version="1.0"?>
<svg version="1.1" xmlns="http://www.w3.org/2000/svg" xmlns:xlink="http://www.w3.org/1999/xlink" width="512" height="512">
    <desc iVinci="yes" version="4.6" gridStep="20" showGrid="no" snapToGrid="no" codePlatform="0"/>
    <g id="Layer1" name="Layer 1" opacity="1">
        <g id="Shape1">
            <desc shapeID="1" type="0" basicInfo-basicType="0" basicInfo-roundedRectRadius="12" basicInfo-polygonSides="6" basicInfo-starPoints="5" bounding="rect(-120.156,-110.592,240.312,221.185)" text="" font-familyName="" font-pixelSize="20" font-bold="0" font-underline="0" font-alignment="1" strokeStyle="0" markerStart="0" markerEnd="0" shadowEnabled="0" shadowOffsetX="0" shadowOffsetY="2" shadowBlur="4" shadowOpacity="160" blurEnabled="0" blurRadius="4" transform="matrix(2.0221,0,0,2.0221,256,249.037)" pers-center="0,0" pers-size="0,0" pers-start="0,0" pers-end="0,0" locked="0" mesh="" flag=""/>
            <path id="shapePath1" d="M355.554,30.4895 C352.319,33.3205 344.433,39.9934 338.366,45.2509 C327.447,54.7548 327.043,54.957 320.168,52.3282 C308.844,48.284 263.549,48.8907 236.857,53.3393 C213.198,57.3835 186.911,64.4609 168.914,71.5382 C144.851,81.0421 106.431,106.116 100.567,116.025 L97.1294,121.889 L89.041,116.833 C76.7061,108.947 63.9669,104.296 52.2387,102.881 C42.5326,101.668 41.5215,101.87 40.1061,105.914 C38.2862,111.778 46.779,147.772 51.4298,153.231 C54.6652,157.275 55.2718,157.478 58.305,154.445 C61.3382,151.411 61.1359,149.794 56.4851,132.201 C53.8564,121.889 51.8343,112.991 52.0365,112.587 C53.0475,111.778 76.0995,120.473 80.5481,123.506 C82.7725,125.124 86.4122,126.337 89.041,126.337 C91.4675,126.337 94.0962,127.348 94.9051,128.562 C95.7139,129.977 99.7581,127.348 105.622,121.686 C117.35,110.363 128.876,102.679 149.3,92.5681 C171.947,81.2443 173.969,80.6377 175.789,86.2996 C177.811,93.1747 184.687,102.274 186.911,101.061 C189.742,99.2411 189.135,93.5792 184.889,85.4908 L180.845,78.2112 L185.293,76.9979 C192.168,75.178 192.371,75.3802 196.819,83.8731 C199.043,88.3217 201.874,91.9615 202.885,91.9615 C206.525,91.9615 207.132,87.7151 204.099,81.6488 C200.257,73.9648 201.268,71.7404 208.952,71.7404 C213.603,71.7404 215.018,72.7515 216.029,77.6046 C217.647,85.2885 222.298,89.535 225.533,86.2996 C227.353,84.4797 227.151,82.6598 225.533,78.8178 C224.118,75.9869 223.106,72.3471 223.106,70.9316 C223.106,65.0675 298.329,60.8211 316.528,65.8763 C324.009,67.8984 324.414,67.6962 342.613,53.5415 C352.723,45.8575 361.823,39.3868 362.632,39.3868 C364.856,39.3868 366.069,43.2288 367.889,54.7548 C369.709,67.494 374.36,74.9758 387.706,86.2996 C414.802,109.958 435.427,152.625 435.427,185.585 C435.427,204.391 425.115,229.465 408.736,250.494 C404.489,255.954 401.052,262.02 401.052,264.043 C401.052,267.48 399.232,267.885 384.47,267.885 C353.33,268.087 303.586,274.153 277.906,281.028 C259.504,285.881 258.493,287.903 258.493,318.235 C258.493,341.085 258.089,343.916 255.258,343.309 C253.438,342.702 238.879,345.736 222.904,349.78 C174.172,362.317 130.09,361.912 92.6808,348.566 C76.9084,342.905 59.9227,332.794 51.632,323.897 C46.9812,319.044 34.242,294.172 29.5911,281.028 C25.3447,268.693 25.7491,237.553 30.8044,216.119 C36.0618,194.078 44.7569,167.184 47.3856,165.768 C50.2166,163.948 49.6099,156.669 46.3746,156.669 C38.8928,156.669 26.1535,185.181 17.4585,221.174 C13.4143,238.564 12.6054,246.046 13.2121,261.818 C14.0209,279.613 14.8298,282.646 23.9292,302.867 C35.6574,328.75 47.7901,342.298 69.2244,353.217 C80.5481,359.081 82.7725,360.901 81.1548,363.732 C80.1437,365.552 78.526,372.023 77.515,378.291 C74.0774,399.524 84.7946,415.498 111.082,428.44 C152.333,448.661 206.727,450.481 243.934,432.686 C254.045,427.833 260.313,423.587 261.526,420.756 C262.335,418.329 264.56,415.094 266.177,413.678 C269.008,411.454 269.615,412.263 271.637,419.947 C275.681,436.326 283.77,458.973 285.792,459.58 C287.005,459.984 289.229,461.602 290.645,463.22 C294.891,467.264 307.833,469.488 337.355,471.308 C385.077,474.139 422.486,472.522 448.571,466.657 C476.678,460.389 478.498,456.749 478.7,405.792 C478.903,374.247 479.307,368.788 482.138,367.979 C488.811,365.754 496.495,355.037 498.315,345.736 C501.55,328.143 492.653,316.617 474.05,314.797 L464.344,313.989 L459.693,299.429 C451.807,274.962 443.92,267.885 423.093,267.278 L412.173,266.874 L421.879,254.134 C430.574,242.608 439.472,227.645 440.685,222.387 C441.089,221.174 442.909,216.321 444.729,211.266 C447.358,204.795 448.369,196.504 448.167,181.945 C448.167,164.151 447.358,159.5 441.494,143.93 C437.854,134.021 431.383,120.675 426.935,114.002 C416.42,98.4322 394.783,76.3913 388.11,74.5714 C385.481,73.9648 383.459,72.3471 384.066,71.1338 C385.077,68.3029 373.551,31.7028 370.316,27.8608 C367.08,23.8166 362.227,24.8276 355.554,30.4895 M437.45,285.275 C444.325,292.15 452.211,317.426 450.593,327.941 C449.784,334.007 450.189,337.849 451.807,340.074 C453.424,341.691 454.233,346.14 453.829,349.78 C453.626,353.42 454.233,357.059 455.446,357.666 C460.906,361.104 463.939,373.034 465.152,395.884 C465.759,409.027 467.174,420.149 467.983,420.756 C469.803,421.767 468.792,430.664 465.355,442.19 C462.726,451.289 458.682,452.907 429.361,456.142 C418.846,457.154 404.287,458.973 397.007,459.782 C389.728,460.591 363.845,460.793 339.378,460.389 L294.891,459.58 L285.185,428.844 C279.725,412.061 274.468,396.288 273.457,393.659 C271.03,387.391 271.233,378.291 273.861,372.225 C275.883,368.181 275.681,366.159 272.85,361.912 C269.413,356.857 266.986,340.68 264.357,308.124 L263.144,290.734 L276.894,289.521 C284.578,288.914 298.531,287.297 308.035,286.083 C335.333,282.444 365.058,280.624 400.445,280.826 C430.777,281.028 433.608,281.433 437.45,285.275 M484.767,328.75 C489.013,331.985 490.024,334.614 490.024,341.489 C490.024,348.566 488.811,350.993 483.553,356.048 C479.509,359.89 474.454,362.317 470.814,362.519 C465.557,362.721 465.355,362.519 468.388,360.699 C471.219,359.081 471.421,357.868 469.803,355.846 C468.59,354.228 466.163,353.622 464.546,354.228 C460.097,355.846 458.479,348.566 462.726,345.533 C467.174,342.298 465.355,336.636 459.693,336.636 C457.468,336.636 455.648,335.423 455.648,333.805 C455.648,325.11 475.667,321.673 484.767,328.75 M257.28,357.059 C255.662,358.07 252.629,358.879 250.405,358.879 C236.452,359.081 221.084,373.438 221.084,386.38 C221.084,394.064 230.79,409.432 237.868,413.274 C240.699,414.892 242.721,416.711 242.316,417.52 C238.475,423.789 205.11,431.675 181.653,431.675 C158.197,431.675 116.744,420.756 100.567,410.241 C98.1404,408.623 93.6918,403.568 90.6587,399.119 C86.0078,391.84 85.4012,389.211 85.8056,375.865 C86.21,367.574 86.8167,360.901 87.2211,360.901 C87.6255,360.901 89.6476,361.912 91.8719,362.923 C93.894,364.137 104.005,366.968 114.317,368.99 C134.134,373.236 186.102,374.854 189.742,371.214 C190.955,370.203 196.01,368.788 201.268,368.181 C220.073,365.957 257.482,355.239 257.684,352.004 C257.684,350.791 258.291,350.993 258.898,352.611 C259.504,354.026 258.696,356.048 257.28,357.059 M266.582,367.17 C267.391,368.383 266.177,371.416 263.751,373.843 C258.696,379.1 258.493,381.122 262.538,381.122 C266.582,381.122 266.38,386.582 262.335,388.806 C258.696,390.828 260.111,395.277 264.56,395.277 C268.604,395.277 269.817,400.939 266.38,404.377 C264.357,406.399 259.504,407.41 252.427,407.41 C242.923,407.41 240.699,406.601 234.228,400.535 C227.757,394.266 226.948,392.648 227.555,384.964 C228.162,377.483 229.173,375.663 234.835,372.427 C246.158,365.754 263.953,362.923 266.582,367.17 Z" style="stroke:none;fill-rule:nonzero;fill:#000000;fill-opacity:1;"/>
        </g>
        <g id="Shape2">
            <desc shapeID="2" type="0" basicInfo-basicType="0" basicInfo-roundedRectRadius="12" basicInfo-polygonSides="6" basicInfo-starPoints="5" bounding="rect(-37.2167,-10.1776,74.4334,20.3552)" text="" font-familyName="" font-pixelSize="20" font-bold="0" font-underline="0" font-alignment="1" strokeStyle="0" markerStart="0" markerEnd="0" shadowEnabled="0" shadowOffsetX="0" shadowOffsetY="2" shadowBlur="4" shadowOpacity="160" blurEnabled="0" blurRadius="4" transform="matrix(2.0221,0,0,2.0221,355.895,308.979)" pers-center="0,0" pers-size="0,0" pers-start="0,0" pers-end="0,0" locked="0" mesh="" flag=""/>
            <path id="shapePath2" d="M367.687,290.33 C357.779,291.139 335.738,292.756 318.954,293.97 C302.171,295.183 287.005,296.598 285.185,297.407 C280.534,299.025 279.321,307.922 282.152,319.448 L284.781,329.559 L316.123,328.952 C347.87,328.143 421.273,321.875 427.946,319.448 C431.99,317.831 431.99,316.617 429.159,304.282 C425.721,289.319 423.295,287.903 403.276,288.51 C393.57,288.914 377.797,289.723 367.687,290.33 M421.475,302.26 C423.093,307.316 423.295,311.158 422.082,312.169 C421.07,313.18 412.78,314.595 403.478,315.404 L386.695,316.617 L388.11,311.562 C389.121,307.518 388.515,306.305 386.088,306.305 C381.437,306.305 382.044,302.867 386.897,301.249 C389.121,300.643 390.941,299.025 390.941,298.014 C390.941,297.003 391.548,296.194 392.559,296.194 C393.368,296.194 393.772,299.834 393.368,304.282 C392.357,313.382 395.794,316.213 403.074,312.371 C406.916,310.349 407.522,308.731 406.511,302.058 C405.5,294.172 405.5,294.172 412.375,294.172 C418.442,294.172 419.251,294.981 421.475,302.26 M379.213,303.271 C378.809,307.316 379.415,311.764 380.831,313.382 C382.246,315.202 383.055,316.819 382.651,317.224 C382.246,317.628 367.687,319.044 350.499,320.257 C333.311,321.47 312.079,323.088 303.586,323.695 L288.218,324.908 L286.803,315.606 C284.376,300.44 284.578,300.238 310.461,300.036 C322.998,299.834 338.366,299.227 344.433,298.216 C350.499,297.407 361.014,296.598 367.687,296.396 L380.022,296.194 L379.213,303.271 M403.074,303.069 C403.074,304.687 402.265,306.709 401.052,307.316 C400.041,307.922 399.03,306.709 399.03,304.485 C399.03,302.058 400.041,300.238 401.052,300.238 C402.265,300.238 403.074,301.451 403.074,303.069 Z" style="stroke:none;fill-rule:nonzero;fill:#000000;fill-opacity:1;"/>
        </g>
        <g id="Shape3">
            <desc shapeID="3" type="0" basicInfo-basicType="0" basicInfo-roundedRectRadius="12" basicInfo-polygonSides="6" basicInfo-starPoints="5" bounding="rect(-7.09087,-6.47487,14.1817,12.9497)" text="" font-familyName="" font-pixelSize="20" font-bold="0" font-underline="0" font-alignment="1" strokeStyle="0" markerStart="0" markerEnd="0" shadowEnabled="0" shadowOffsetX="0" shadowOffsetY="2" shadowBlur="4" shadowOpacity="160" blurEnabled="0" blurRadius="4" transform="matrix(2.0221,0,0,2.0221,405.179,355.817)" pers-center="0,0" pers-size="0,0" pers-start="0,0" pers-end="0,0" locked="0" mesh="" flag=""/>
            <path id="shapePath3" d="M395.39,345.938 C389.324,350.184 389.324,361.508 395.39,365.754 C400.647,369.394 409.747,370.001 415.409,366.968 C420.464,364.137 421.071,345.938 416.015,343.916 C410.151,341.691 400.041,342.702 395.39,345.938 M400.849,350.791 C399.03,352.004 399.232,353.217 401.658,355.846 C404.894,358.879 405.298,358.879 408.736,355.644 C411.971,352.206 412.173,352.206 412.78,355.846 C413.791,360.295 409.342,363.126 404.085,361.71 C398.827,360.093 399.232,360.497 397.816,353.217 C396.603,347.555 397.008,346.949 400.041,347.96 C402.467,348.971 402.669,349.78 400.849,350.791 M412.578,349.982 C411.971,350.589 410.151,350.791 408.736,350.184 C407.118,349.578 407.725,348.971 409.949,348.971 C412.173,348.769 413.387,349.375 412.578,349.982 Z" style="stroke:none;fill-rule:nonzero;fill:#000000;fill-opacity:1;"/>
        </g>
        <g id="Shape4">
            <desc shapeID="4" type="0" basicInfo-basicType="0" basicInfo-roundedRectRadius="12" basicInfo-polygonSides="6" basicInfo-starPoints="5" bounding="rect(-5.92612,-6.36774,11.8522,12.7355)" text="" font-familyName="" font-pixelSize="20" font-bold="0" font-underline="0" font-alignment="1" strokeStyle="0" markerStart="0" markerEnd="0" shadowEnabled="0" shadowOffsetX="0" shadowOffsetY="2" shadowBlur="4" shadowOpacity="160" blurEnabled="0" blurRadius="4" transform="matrix(2.0221,0,0,2.0221,308.729,359.805)" pers-center="0,0" pers-size="0,0" pers-start="0,0" pers-end="0,0" locked="0" mesh="" flag=""/>
            <path id="shapePath4" d="M302.777,348.769 C293.678,352.409 295.296,369.799 304.799,372.225 C315.517,374.854 323.201,365.754 319.965,354.026 C318.348,347.96 317.134,346.747 312.483,346.949 C309.45,346.949 305.002,347.758 302.777,348.769 M316.123,359.081 C316.123,364.137 315.314,364.946 310.259,364.946 C303.788,364.946 299.744,358.273 303.788,354.228 C305.406,352.611 306.013,353.217 306.013,356.453 C306.013,359.688 307.226,360.901 310.259,360.901 C313.697,360.901 314.303,359.89 313.697,355.846 C313.09,353.217 313.495,351.397 314.303,352.004 C315.314,352.611 316.123,355.644 316.123,359.081 Z" style="stroke:none;fill-rule:nonzero;fill:#000000;fill-opacity:1;"/>
        </g>
        <g id="Shape5">
            <desc shapeID="5" type="0" basicInfo-basicType="0" basicInfo-roundedRectRadius="12" basicInfo-polygonSides="6" basicInfo-starPoints="5" bounding="rect(-6.32947,-6.91798,12.659,13.8359)" text="" font-familyName="" font-pixelSize="20" font-bold="0" font-underline="0" font-alignment="1" strokeStyle="0" markerStart="0" markerEnd="0" shadowEnabled="0" shadowOffsetX="0" shadowOffsetY="2" shadowBlur="4" shadowOpacity="160" blurEnabled="0" blurRadius="4" transform="matrix(2.0221,0,0,2.0221,339.572,360.958)" pers-center="0,0" pers-size="0,0" pers-start="0,0" pers-end="0,0" locked="0" mesh="" flag=""/>
            <path id="shapePath5" d="M331.694,349.578 C325.829,354.026 325.021,365.148 330.278,370.405 C335.333,376.067 344.635,376.472 349.084,371.416 C353.33,366.765 353.532,354.026 349.286,349.982 C345.444,346.14 336.547,345.938 331.694,349.578 M337.153,354.026 C337.76,355.644 337.558,356.453 336.344,355.846 C335.131,355.239 334.322,356.655 334.322,359.081 C334.322,361.508 333.716,363.126 333.109,362.317 C331.896,361.104 333.716,350.791 335.131,350.791 C335.536,350.791 336.547,352.206 337.153,354.026 M345.444,361.104 C345.444,365.754 344.433,368.181 342.006,368.585 C339.175,369.192 338.973,368.181 340.389,362.115 C341.197,358.273 341.4,354.431 340.591,353.622 C339.984,352.813 340.793,352.611 342.411,353.217 C344.231,353.824 345.444,356.655 345.444,361.104 Z" style="stroke:none;fill-rule:nonzero;fill:#000000;fill-opacity:1;"/>
        </g>
        <g id="Shape6">
            <desc shapeID="6" type="0" basicInfo-basicType="0" basicInfo-roundedRectRadius="12" basicInfo-polygonSides="6" basicInfo-starPoints="5" bounding="rect(-6.40812,-6.46487,12.8162,12.9297)" text="" font-familyName="" font-pixelSize="20" font-bold="0" font-underline="0" font-alignment="1" strokeStyle="0" markerStart="0" markerEnd="0" shadowEnabled="0" shadowOffsetX="0" shadowOffsetY="2" shadowBlur="4" shadowOpacity="160" blurEnabled="0" blurRadius="4" transform="matrix(2.0221,0,0,2.0221,367.588,359.961)" pers-center="0,0" pers-size="0,0" pers-start="0,0" pers-end="0,0" locked="0" mesh="" flag=""/>
            <path id="shapePath6" d="M361.823,352.206 C362.632,355.239 364.047,358.677 364.856,359.688 C365.867,360.901 366.676,362.923 366.676,364.541 C366.676,366.968 366.069,366.968 363.643,364.946 C362.025,363.53 360.61,359.688 360.61,356.453 C360.61,351.195 360.205,350.589 357.576,352.813 C350.095,358.879 357.981,373.034 368.698,373.034 C378,373.034 381.235,368.99 380.426,357.868 L379.82,347.758 L370.113,347.151 C360.407,346.544 360.407,346.544 361.823,352.206 M374.764,358.879 C374.764,362.115 374.158,364.946 373.349,364.946 C372.338,364.946 371.731,362.115 371.731,358.879 C371.731,355.442 372.338,352.813 373.349,352.813 C374.158,352.813 374.764,355.442 374.764,358.879 Z" style="stroke:none;fill-rule:nonzero;fill:#000000;fill-opacity:1;"/>
        </g>
        <g id="Shape7">
            <desc shapeID="7" type="0" basicInfo-basicType="0" basicInfo-roundedRectRadius="12" basicInfo-polygonSides="6" basicInfo-starPoints="5" bounding="rect(-6.94489,-7.26581,13.8898,14.5316)" text="" font-familyName="" font-pixelSize="20" font-bold="0" font-underline="0" font-alignment="1" strokeStyle="0" markerStart="0" markerEnd="0" shadowEnabled="0" shadowOffsetX="0" shadowOffsetY="2" shadowBlur="4" shadowOpacity="160" blurEnabled="0" blurRadius="4" transform="matrix(2.0221,0,0,2.0221,406.218,394.083)" pers-center="0,0" pers-size="0,0" pers-start="0,0" pers-end="0,0" locked="0" mesh="" flag=""/>
            <path id="shapePath7" d="M394.783,382.336 C391.143,386.784 391.346,400.535 395.188,404.377 C399.838,409.027 411.364,410.241 416.217,406.803 C419.251,404.377 420.059,401.343 420.262,392.042 L420.262,380.111 L408.938,379.505 C400.243,379.1 397.007,379.707 394.783,382.336 M415.206,389.009 C415.206,391.233 414.398,395.277 413.184,398.31 C411.567,402.759 410.353,403.163 405.702,402.152 C398.423,400.332 399.03,401.141 397.614,392.446 L396.401,385.167 L405.905,385.167 C413.791,385.167 415.206,385.773 415.206,389.009 Z" style="stroke:none;fill-rule:nonzero;fill:#000000;fill-opacity:1;"/>
        </g>
        <g id="Shape8">
            <desc shapeID="8" type="0" basicInfo-basicType="0" basicInfo-roundedRectRadius="12" basicInfo-polygonSides="6" basicInfo-starPoints="5" bounding="rect(-2.43359,-1.19859,4.86717,2.39716)" text="" font-familyName="" font-pixelSize="20" font-bold="0" font-underline="0" font-alignment="1" strokeStyle="0" markerStart="0" markerEnd="0" shadowEnabled="0" shadowOffsetX="0" shadowOffsetY="2" shadowBlur="4" shadowOpacity="160" blurEnabled="0" blurRadius="4" transform="matrix(2.0221,0,0,2.0221,406.241,391.814)" pers-center="0,0" pers-size="0,0" pers-start="0,0" pers-end="0,0" locked="0" mesh="" flag=""/>
            <path id="shapePath8" d="M401.456,391.637 C402.467,394.67 411.162,395.277 411.162,392.244 C411.162,391.031 408.938,390.02 405.905,389.615 C402.265,389.009 400.849,389.615 401.456,391.637 Z" style="stroke:none;fill-rule:nonzero;fill:#000000;fill-opacity:1;"/>
        </g>
        <g id="Shape9">
            <desc shapeID="9" type="0" basicInfo-basicType="0" basicInfo-roundedRectRadius="12" basicInfo-polygonSides="6" basicInfo-starPoints="5" bounding="rect(-6.40342,-7.38608,12.8068,14.7722)" text="" font-familyName="" font-pixelSize="20" font-bold="0" font-underline="0" font-alignment="1" strokeStyle="0" markerStart="0" markerEnd="0" shadowEnabled="0" shadowOffsetX="0" shadowOffsetY="2" shadowBlur="4" shadowOpacity="160" blurEnabled="0" blurRadius="4" transform="matrix(2.0221,0,0,2.0221,307,396.395)" pers-center="0,0" pers-size="0,0" pers-start="0,0" pers-end="0,0" locked="0" mesh="" flag=""/>
            <path id="shapePath9" d="M302.575,384.156 C295.498,387.189 292.667,393.862 294.689,401.95 C296.711,410.443 314.303,414.892 317.741,407.814 C321.179,400.737 320.572,389.615 316.123,385.167 C311.472,380.516 311.068,380.314 302.575,384.156 M302.575,390.222 C301.969,392.042 300.958,393.053 300.553,392.446 C299.946,391.84 300.149,390.626 300.958,389.413 C302.777,386.178 303.991,386.784 302.575,390.222 M313.697,391.031 C314.303,392.648 313.495,393.457 311.877,392.851 C310.461,392.446 308.844,390.829 308.439,389.413 C307.833,387.795 308.642,386.987 310.259,387.593 C311.675,387.998 313.292,389.615 313.697,391.031 M306.013,399.321 C306.013,400.737 307.226,400.737 310.057,399.321 C313.495,397.501 314.101,397.704 314.101,401.343 C314.101,405.994 306.417,407.005 302.373,402.961 C299.138,399.726 299.34,397.299 302.98,397.299 C304.597,397.299 306.013,398.31 306.013,399.321 Z" style="stroke:none;fill-rule:nonzero;fill:#000000;fill-opacity:1;"/>
        </g>
        <g id="Shape10">
            <desc shapeID="10" type="0" basicInfo-basicType="0" basicInfo-roundedRectRadius="12" basicInfo-polygonSides="6" basicInfo-starPoints="5" bounding="rect(-6.083,-6.84952,12.166,13.699)" text="" font-familyName="" font-pixelSize="20" font-bold="0" font-underline="0" font-alignment="1" strokeStyle="0" markerStart="0" markerEnd="0" shadowEnabled="0" shadowOffsetX="0" shadowOffsetY="2" shadowBlur="4" shadowOpacity="160" blurEnabled="0" blurRadius="4" transform="matrix(2.0221,0,0,2.0221,366.508,395.172)" pers-center="0,0" pers-size="0,0" pers-start="0,0" pers-end="0,0" locked="0" mesh="" flag=""/>
            <path id="shapePath10" d="M358.992,384.358 C352.319,389.009 352.723,402.152 359.599,406.601 C369.305,413.072 378.809,405.994 378.809,392.244 C378.809,382.336 368.091,377.887 358.992,384.358 M371.125,394.064 C371.731,396.895 371.125,400.13 370.113,401.141 C366.676,404.579 364.856,403.77 366.069,399.524 C366.676,397.501 366.069,395.075 364.654,394.266 C363.036,393.255 363.036,392.244 364.856,390.02 C367.889,386.38 369.911,387.795 371.125,394.064 Z" style="stroke:none;fill-rule:nonzero;fill:#000000;fill-opacity:1;"/>
        </g>
        <g id="Shape11">
            <desc shapeID="11" type="0" basicInfo-basicType="0" basicInfo-roundedRectRadius="12" basicInfo-polygonSides="6" basicInfo-starPoints="5" bounding="rect(-6.37769,-6.42305,12.7554,12.8461)" text="" font-familyName="" font-pixelSize="20" font-bold="0" font-underline="0" font-alignment="1" strokeStyle="0" markerStart="0" markerEnd="0" shadowEnabled="0" shadowOffsetX="0" shadowOffsetY="2" shadowBlur="4" shadowOpacity="160" blurEnabled="0" blurRadius="4" transform="matrix(2.0221,0,0,2.0221,335.581,396.133)" pers-center="0,0" pers-size="0,0" pers-start="0,0" pers-end="0,0" locked="0" mesh="" flag=""/>
            <path id="shapePath11" d="M325.223,389.817 C321.987,395.884 321.987,397.299 324.414,402.557 C326.638,407.208 328.863,408.623 334.524,409.027 C344.028,409.836 348.477,405.388 348.477,395.479 C348.477,385.975 345.646,383.145 336.344,383.145 C330.076,383.145 328.256,384.156 325.223,389.817 M338.973,388.604 C337.558,389.009 334.727,389.009 332.907,388.604 C330.885,387.998 332.098,387.593 335.333,387.593 C338.771,387.593 340.186,387.998 338.973,388.604 M332.704,397.501 C334.12,401.343 335.738,403.163 337.558,402.557 C339.175,401.95 340.388,402.354 340.388,403.366 C340.388,404.579 338.569,405.388 336.344,405.388 C332.3,405.388 328.256,399.928 328.256,394.468 C328.256,389.413 330.278,390.828 332.704,397.501 Z" style="stroke:none;fill-rule:nonzero;fill:#000000;fill-opacity:1;"/>
        </g>
        <g id="Shape12">
            <desc shapeID="12" type="0" basicInfo-basicType="0" basicInfo-roundedRectRadius="12" basicInfo-polygonSides="6" basicInfo-starPoints="5" bounding="rect(-6.56795,-6.95524,13.1359,13.9105)" text="" font-familyName="" font-pixelSize="20" font-bold="0" font-underline="0" font-alignment="1" strokeStyle="0" markerStart="0" markerEnd="0" shadowEnabled="0" shadowOffsetX="0" shadowOffsetY="2" shadowBlur="4" shadowOpacity="160" blurEnabled="0" blurRadius="4" transform="matrix(2.0221,0,0,2.0221,400.178,429.743)" pers-center="0,0" pers-size="0,0" pers-start="0,0" pers-end="0,0" locked="0" mesh="" flag=""/>
            <path id="shapePath12" d="M397.816,417.318 C388.11,419.745 386.897,421.16 386.897,430.664 C386.897,440.572 390.132,443.808 400.849,443.808 C410.556,443.808 414.6,437.741 413.184,424.598 C412.982,420.756 407.725,415.296 405.298,415.7 C404.691,415.903 401.254,416.509 397.816,417.318 M406.714,429.248 C406.107,435.517 405.298,436.73 401.052,437.135 C398.221,437.337 397.412,437.135 399.636,436.528 C401.456,435.921 403.074,434.506 403.074,433.495 C403.074,430.664 395.39,431.271 394.379,434.102 C393.772,435.517 393.165,433.495 393.165,429.653 C392.963,422.98 393.368,422.576 400.243,422.171 C407.32,421.767 407.32,421.969 406.714,429.248 Z" style="stroke:none;fill-rule:nonzero;fill:#000000;fill-opacity:1;"/>
        </g>
        <g id="Shape13">
            <desc shapeID="13" type="0" basicInfo-basicType="0" basicInfo-roundedRectRadius="12" basicInfo-polygonSides="6" basicInfo-starPoints="5" bounding="rect(-2.5,-1,5,2)" text="" font-familyName="" font-pixelSize="20" font-bold="0" font-underline="0" font-alignment="1" strokeStyle="0" markerStart="0" markerEnd="0" shadowEnabled="0" shadowOffsetX="0" shadowOffsetY="2" shadowBlur="4" shadowOpacity="160" blurEnabled="0" blurRadius="4" transform="matrix(2.0221,0,0,2.0221,400.041,427.631)" pers-center="0,0" pers-size="0,0" pers-start="0,0" pers-end="0,0" locked="0" mesh="" flag=""/>
            <path id="shapePath13" d="M394.985,427.631 C394.985,428.642 397.21,429.653 400.041,429.653 C402.872,429.653 405.096,428.642 405.096,427.631 C405.096,426.418 402.872,425.609 400.041,425.609 C397.21,425.609 394.985,426.418 394.985,427.631 Z" style="stroke:none;fill-rule:nonzero;fill:#000000;fill-opacity:1;"/>
        </g>
        <g id="Shape14">
            <desc shapeID="14" type="0" basicInfo-basicType="0" basicInfo-roundedRectRadius="12" basicInfo-polygonSides="6" basicInfo-starPoints="5" bounding="rect(-5.84465,-6.43115,11.6893,12.8623)" text="" font-familyName="" font-pixelSize="20" font-bold="0" font-underline="0" font-alignment="1" strokeStyle="0" markerStart="0" markerEnd="0" shadowEnabled="0" shadowOffsetX="0" shadowOffsetY="2" shadowBlur="4" shadowOpacity="160" blurEnabled="0" blurRadius="4" transform="matrix(2.0221,0,0,2.0221,362.946,430.646)" pers-center="0,0" pers-size="0,0" pers-start="0,0" pers-end="0,0" locked="0" mesh="" flag=""/>
            <path id="shapePath14" d="M357.172,419.542 C351.308,421.969 349.084,432.282 353.33,438.752 C360.003,448.863 374.764,442.19 374.764,429.046 C374.764,418.531 368.496,415.094 357.172,419.542 M368.698,427.631 C368.698,429.855 368.294,431.675 367.687,431.675 C367.283,431.675 365.867,429.855 364.654,427.631 C362.834,424.395 363.036,423.587 365.665,423.587 C367.283,423.587 368.698,425.406 368.698,427.631 M363.643,436.124 C364.856,436.932 364.047,437.741 362.227,437.741 C360.205,437.741 358.587,436.326 358.587,434.304 C358.587,432.484 359.194,431.877 360.205,432.888 C361.014,433.899 362.632,435.315 363.643,436.124 Z" style="stroke:none;fill-rule:nonzero;fill:#000000;fill-opacity:1;"/>
        </g>
        <g id="Shape15">
            <desc shapeID="15" type="0" basicInfo-basicType="0" basicInfo-roundedRectRadius="12" basicInfo-polygonSides="6" basicInfo-starPoints="5" bounding="rect(-5.44972,-6.33031,10.8994,12.6606)" text="" font-familyName="" font-pixelSize="20" font-bold="0" font-underline="0" font-alignment="1" strokeStyle="0" markerStart="0" markerEnd="0" shadowEnabled="0" shadowOffsetX="0" shadowOffsetY="2" shadowBlur="4" shadowOpacity="160" blurEnabled="0" blurRadius="4" transform="matrix(2.0221,0,0,2.0221,309.148,434.612)" pers-center="0,0" pers-size="0,0" pers-start="0,0" pers-end="0,0" locked="0" mesh="" flag=""/>
            <path id="shapePath15" d="M302.373,423.789 C298.329,425.406 297.722,426.822 298.329,435.113 C298.935,444.414 299.138,444.819 306.417,446.639 C315.921,449.065 320.167,445.83 320.167,436.326 C320.167,422.98 314.303,418.936 302.373,423.789 M314.101,434.91 C314.101,441.583 313.697,441.988 308.642,441.381 C304.193,440.977 302.777,439.561 302.373,435.315 C301.969,431.473 302.777,429.653 305.406,429.046 C313.292,427.024 314.101,427.631 314.101,434.91 Z" style="stroke:none;fill-rule:nonzero;fill:#000000;fill-opacity:1;"/>
        </g>
        <g id="Shape16">
            <desc shapeID="16" type="0" basicInfo-basicType="0" basicInfo-roundedRectRadius="12" basicInfo-polygonSides="6" basicInfo-starPoints="5" bounding="rect(-0.853922,-2.00301,1.70784,4.00606)" text="" font-familyName="" font-pixelSize="20" font-bold="0" font-underline="0" font-alignment="1" strokeStyle="0" markerStart="0" markerEnd="0" shadowEnabled="0" shadowOffsetX="0" shadowOffsetY="2" shadowBlur="4" shadowOpacity="160" blurEnabled="0" blurRadius="4" transform="matrix(2.0221,0,0,2.0221,308.033,433.754)" pers-center="0,0" pers-size="0,0" pers-start="0,0" pers-end="0,0" locked="0" mesh="" flag=""/>
            <path id="shapePath16" d="M307.024,432.282 C306.215,434.304 306.013,436.528 306.822,437.135 C308.844,439.157 310.461,436.326 309.45,432.282 C308.642,428.844 308.642,428.844 307.024,432.282 Z" style="stroke:none;fill-rule:nonzero;fill:#000000;fill-opacity:1;"/>
        </g>
        <g id="Shape17">
            <desc shapeID="17" type="0" basicInfo-basicType="0" basicInfo-roundedRectRadius="12" basicInfo-polygonSides="6" basicInfo-starPoints="5" bounding="rect(-5.8891,-5.94226,11.7782,11.8845)" text="" font-familyName="" font-pixelSize="20" font-bold="0" font-underline="0" font-alignment="1" strokeStyle="0" markerStart="0" markerEnd="0" shadowEnabled="0" shadowOffsetX="0" shadowOffsetY="2" shadowBlur="4" shadowOpacity="160" blurEnabled="0" blurRadius="4" transform="matrix(2.0221,0,0,2.0221,334.547,433.58)" pers-center="0,0" pers-size="0,0" pers-start="0,0" pers-end="0,0" locked="0" mesh="" flag=""/>
            <path id="shapePath17" d="M324.212,426.62 C322.392,430.057 322.19,433.495 323.403,438.146 C325.021,443.605 326.436,445.021 331.693,445.425 C342.006,446.436 346.455,442.999 346.455,434.102 C346.455,424.598 343.624,421.565 334.322,421.565 C328.458,421.565 326.234,422.576 324.212,426.62 M340.389,429.653 C340.389,430.866 338.164,431.271 335.131,430.462 C330.278,429.249 330.076,429.451 332.3,433.495 C333.716,436.326 335.738,437.539 337.558,436.933 C339.377,436.326 339.984,436.73 339.377,437.741 C337.355,440.977 330.885,440.168 329.469,436.528 C326.84,429.855 328.256,427.631 334.322,427.631 C337.76,427.631 340.389,428.642 340.389,429.653 Z" style="stroke:none;fill-rule:nonzero;fill:#000000;fill-opacity:1;"/>
        </g>
        <g id="Shape18">
            <desc shapeID="18" type="0" basicInfo-basicType="0" basicInfo-roundedRectRadius="12" basicInfo-polygonSides="6" basicInfo-starPoints="5" bounding="rect(-6.97134,-2.91748,13.9427,5.83496)" text="" font-familyName="" font-pixelSize="20" font-bold="0" font-underline="0" font-alignment="1" strokeStyle="0" markerStart="0" markerEnd="0" shadowEnabled="0" shadowOffsetX="0" shadowOffsetY="2" shadowBlur="4" shadowOpacity="160" blurEnabled="0" blurRadius="4" transform="matrix(2.0221,0,0,2.0221,392.905,134.495)" pers-center="0,0" pers-size="0,0" pers-start="0,0" pers-end="0,0" locked="0" mesh="" flag=""/>
            <path id="shapePath18" d="M391.548,130.381 C384.47,131.999 378.809,135.841 378.809,138.672 C378.809,141.099 398.423,140.896 403.276,138.47 C407.927,135.841 408.331,131.19 403.883,129.573 C400.243,128.157 400.445,128.157 391.548,130.381 Z" style="stroke:none;fill-rule:nonzero;fill:#000000;fill-opacity:1;"/>
        </g>
        <g id="Shape19">
            <desc shapeID="19" type="0" basicInfo-basicType="0" basicInfo-roundedRectRadius="12" basicInfo-polygonSides="6" basicInfo-starPoints="5" bounding="rect(-5.62518,-3.60561,11.2504,7.21121)" text="" font-familyName="" font-pixelSize="20" font-bold="0" font-underline="0" font-alignment="1" strokeStyle="0" markerStart="0" markerEnd="0" shadowEnabled="0" shadowOffsetX="0" shadowOffsetY="2" shadowBlur="4" shadowOpacity="160" blurEnabled="0" blurRadius="4" transform="matrix(2.0221,0,0,2.0221,259.201,141.969)" pers-center="0,0" pers-size="0,0" pers-start="0,0" pers-end="0,0" locked="0" mesh="" flag=""/>
            <path id="shapePath19" d="M258.493,137.257 C244.136,143.525 244.339,153.433 258.695,147.367 C269.008,143.121 271.637,140.896 270.221,137.257 C269.008,133.819 266.379,133.819 258.493,137.257 Z" style="stroke:none;fill-rule:nonzero;fill:#000000;fill-opacity:1;"/>
        </g>
        <g id="Shape20">
            <desc shapeID="20" type="0" basicInfo-basicType="0" basicInfo-roundedRectRadius="12" basicInfo-polygonSides="6" basicInfo-starPoints="5" bounding="rect(-6.27257,-2.67448,12.5451,5.34896)" text="" font-familyName="" font-pixelSize="20" font-bold="0" font-underline="0" font-alignment="1" strokeStyle="0" markerStart="0" markerEnd="0" shadowEnabled="0" shadowOffsetX="0" shadowOffsetY="2" shadowBlur="4" shadowOpacity="160" blurEnabled="0" blurRadius="4" transform="matrix(2.0221,0,0,2.0221,397.467,150.775)" pers-center="0,0" pers-size="0,0" pers-start="0,0" pers-end="0,0" locked="0" mesh="" flag=""/>
            <path id="shapePath20" d="M394.581,147.772 C378.606,152.625 383.257,158.489 400.647,155.253 C408.129,154.04 410.151,152.827 410.151,149.591 C410.151,144.536 406.511,144.132 394.581,147.772 Z" style="stroke:none;fill-rule:nonzero;fill:#000000;fill-opacity:1;"/>
        </g>
        <g id="Shape21">
            <desc shapeID="21" type="0" basicInfo-basicType="0" basicInfo-roundedRectRadius="12" basicInfo-polygonSides="6" basicInfo-starPoints="5" bounding="rect(-16.5214,-29.4643,33.0429,58.9286)" text="" font-familyName="" font-pixelSize="20" font-bold="0" font-underline="0" font-alignment="1" strokeStyle="0" markerStart="0" markerEnd="0" shadowEnabled="0" shadowOffsetX="0" shadowOffsetY="2" shadowBlur="4" shadowOpacity="160" blurEnabled="0" blurRadius="4" transform="matrix(2.0221,0,0,2.0221,246.404,210.182)" pers-center="0,0" pers-size="0,0" pers-start="0,0" pers-end="0,0" locked="0" mesh="" flag=""/>
            <path id="shapePath21" d="M222.702,153.838 C216.636,157.073 215.22,160.713 219.871,160.713 C225.937,160.713 225.533,167.588 219.062,172.846 C215.827,175.677 212.996,178.508 212.996,179.316 C212.996,182.35 222.298,180.732 232.813,175.879 C238.879,173.048 244.339,170.824 245.35,170.824 C250.405,170.824 266.177,211.468 268.604,230.476 C269.615,239.171 269.21,241.597 265.571,246.248 C257.28,256.763 244.339,260.403 232.004,255.752 C223.106,252.314 221.489,256.561 228.971,264.043 C235.037,270.109 236.048,270.311 246.158,269.3 C260.313,267.885 267.593,263.84 274.266,254.336 C280.736,245.035 281.545,231.284 276.692,212.277 C273.052,198.122 260.92,173.452 254.045,165.971 C248.585,159.904 245.956,159.5 236.25,163.544 C229.577,166.375 229.173,166.375 229.173,162.937 C229.173,160.915 230.588,158.084 232.206,156.669 C235.441,154.04 234.43,150.603 230.588,150.603 C229.173,150.805 225.735,152.22 222.702,153.838 Z" style="stroke:none;fill-rule:nonzero;fill:#000000;fill-opacity:1;"/>
        </g>
        <g id="Shape22">
            <desc shapeID="22" type="0" basicInfo-basicType="0" basicInfo-roundedRectRadius="12" basicInfo-polygonSides="6" basicInfo-starPoints="5" bounding="rect(-5.61528,-2.77365,11.2306,5.54731)" text="" font-familyName="" font-pixelSize="20" font-bold="0" font-underline="0" font-alignment="1" strokeStyle="0" markerStart="0" markerEnd="0" shadowEnabled="0" shadowOffsetX="0" shadowOffsetY="2" shadowBlur="4" shadowOpacity="160" blurEnabled="0" blurRadius="4" transform="matrix(2.0221,0,0,2.0221,196.539,160.29)" pers-center="0,0" pers-size="0,0" pers-start="0,0" pers-end="0,0" locked="0" mesh="" flag=""/>
            <path id="shapePath22" d="M188.731,158.286 C182.058,163.746 185.091,166.982 195.404,165.566 C205.312,163.948 209.154,161.522 207.536,157.478 C205.919,153.433 194.19,153.838 188.731,158.286 Z" style="stroke:none;fill-rule:nonzero;fill:#000000;fill-opacity:1;"/>
        </g>
        <g id="Shape23">
            <desc shapeID="23" type="0" basicInfo-basicType="0" basicInfo-roundedRectRadius="12" basicInfo-polygonSides="6" basicInfo-starPoints="5" bounding="rect(-5.36116,-4.36088,10.7223,8.72177)" text="" font-familyName="" font-pixelSize="20" font-bold="0" font-underline="0" font-alignment="1" strokeStyle="0" markerStart="0" markerEnd="0" shadowEnabled="0" shadowOffsetX="0" shadowOffsetY="2" shadowBlur="4" shadowOpacity="160" blurEnabled="0" blurRadius="4" transform="matrix(2.0221,0,0,2.0221,43.853,257.044)" pers-center="0,0" pers-size="0,0" pers-start="0,0" pers-end="0,0" locked="0" mesh="" flag=""/>
            <path id="shapePath23" d="M40.3082,253.73 C33.2309,259.998 30.8044,265.862 35.253,265.862 C38.8928,265.862 55.474,253.123 54.6652,250.899 C53.2497,246.45 47.3856,247.664 40.3082,253.73 Z" style="stroke:none;fill-rule:nonzero;fill:#000000;fill-opacity:1;"/>
        </g>
        <g id="Shape24">
            <desc shapeID="24" type="0" basicInfo-basicType="0" basicInfo-roundedRectRadius="12" basicInfo-polygonSides="6" basicInfo-starPoints="5" bounding="rect(-4.95988,-3.98312,9.91976,7.96624)" text="" font-familyName="" font-pixelSize="20" font-bold="0" font-underline="0" font-alignment="1" strokeStyle="0" markerStart="0" markerEnd="0" shadowEnabled="0" shadowOffsetX="0" shadowOffsetY="2" shadowBlur="4" shadowOpacity="160" blurEnabled="0" blurRadius="4" transform="matrix(2.0221,0,0,2.0221,51.0061,271.963)" pers-center="0,0" pers-size="0,0" pers-start="0,0" pers-end="0,0" locked="0" mesh="" flag=""/>
            <path id="shapePath24" d="M47.5878,269.502 C41.7237,274.557 38.8928,280.017 42.7348,280.017 C46.5768,279.815 60.3271,270.311 60.9337,267.278 C61.9448,262.02 55.2718,263.032 47.5878,269.502 Z" style="stroke:none;fill-rule:nonzero;fill:#000000;fill-opacity:1;"/>
        </g>
        <g id="Shape25">
            <desc shapeID="25" type="0" basicInfo-basicType="0" basicInfo-roundedRectRadius="12" basicInfo-polygonSides="6" basicInfo-starPoints="5" bounding="rect(-6.5,-4.00444,13,8.00887)" text="" font-familyName="" font-pixelSize="20" font-bold="0" font-underline="0" font-alignment="1" strokeStyle="0" markerStart="0" markerEnd="0" shadowEnabled="0" shadowOffsetX="0" shadowOffsetY="2" shadowBlur="4" shadowOpacity="160" blurEnabled="0" blurRadius="4" transform="matrix(2.0221,0,0,2.0221,60.3271,290.188)" pers-center="0,0" pers-size="0,0" pers-start="0,0" pers-end="0,0" locked="0" mesh="" flag=""/>
            <path id="shapePath25" d="M60.3271,284.466 C54.8674,287.499 47.1834,294.576 47.1834,296.598 C47.1834,302.867 73.2686,290.128 73.4708,283.455 C73.4708,281.23 64.9779,281.837 60.3271,284.466 Z" style="stroke:none;fill-rule:nonzero;fill:#000000;fill-opacity:1;"/>
        </g>
    </g>
</svg>
